<mxfile host="Electron" modified="2024-01-24T11:13:53.604Z" agent="Mozilla/5.0 (Windows NT 10.0; Win64; x64) AppleWebKit/537.36 (KHTML, like Gecko) draw.io/22.1.2 Chrome/114.0.5735.289 Electron/25.9.4 Safari/537.36" etag="HolmmjBjn9t-1OyRMa7V" version="22.1.2" type="device">
  <diagram id="C5RBs43oDa-KdzZeNtuy" name="Page-1">
    <mxGraphModel dx="1884" dy="1102" grid="1" gridSize="10" guides="1" tooltips="1" connect="1" arrows="1" fold="1" page="1" pageScale="1" pageWidth="827" pageHeight="1169" math="0" shadow="0">
      <root>
        <mxCell id="WIyWlLk6GJQsqaUBKTNV-0" />
        <mxCell id="WIyWlLk6GJQsqaUBKTNV-1" parent="WIyWlLk6GJQsqaUBKTNV-0" />
        <mxCell id="BCEGYYYTrGKO1_osvVn5-1" value="Chambre&lt;br&gt;" style="swimlane;fontStyle=1;align=center;verticalAlign=top;childLayout=stackLayout;horizontal=1;startSize=26;horizontalStack=0;resizeParent=1;resizeParentMax=0;resizeLast=0;collapsible=1;marginBottom=0;whiteSpace=wrap;html=1;" vertex="1" parent="WIyWlLk6GJQsqaUBKTNV-1">
          <mxGeometry x="620" y="370" width="160" height="124" as="geometry" />
        </mxCell>
        <mxCell id="BCEGYYYTrGKO1_osvVn5-2" value="+ nbre_de_lits : int&lt;br&gt;+ prix : float&lt;br&gt;+numÃ©ro float" style="text;strokeColor=none;fillColor=none;align=left;verticalAlign=top;spacingLeft=4;spacingRight=4;overflow=hidden;rotatable=0;points=[[0,0.5],[1,0.5]];portConstraint=eastwest;whiteSpace=wrap;html=1;" vertex="1" parent="BCEGYYYTrGKO1_osvVn5-1">
          <mxGeometry y="26" width="160" height="64" as="geometry" />
        </mxCell>
        <mxCell id="BCEGYYYTrGKO1_osvVn5-3" value="" style="line;strokeWidth=1;fillColor=none;align=left;verticalAlign=middle;spacingTop=-1;spacingLeft=3;spacingRight=3;rotatable=0;labelPosition=right;points=[];portConstraint=eastwest;strokeColor=inherit;" vertex="1" parent="BCEGYYYTrGKO1_osvVn5-1">
          <mxGeometry y="90" width="160" height="8" as="geometry" />
        </mxCell>
        <mxCell id="BCEGYYYTrGKO1_osvVn5-4" value="+ loyer(:Date)" style="text;strokeColor=none;fillColor=none;align=left;verticalAlign=top;spacingLeft=4;spacingRight=4;overflow=hidden;rotatable=0;points=[[0,0.5],[1,0.5]];portConstraint=eastwest;whiteSpace=wrap;html=1;" vertex="1" parent="BCEGYYYTrGKO1_osvVn5-1">
          <mxGeometry y="98" width="160" height="26" as="geometry" />
        </mxCell>
        <mxCell id="BCEGYYYTrGKO1_osvVn5-13" value="Personne" style="swimlane;fontStyle=0;childLayout=stackLayout;horizontal=1;startSize=26;fillColor=none;horizontalStack=0;resizeParent=1;resizeParentMax=0;resizeLast=0;collapsible=1;marginBottom=0;whiteSpace=wrap;html=1;" vertex="1" parent="WIyWlLk6GJQsqaUBKTNV-1">
          <mxGeometry x="160" y="60" width="140" height="78" as="geometry" />
        </mxCell>
        <mxCell id="BCEGYYYTrGKO1_osvVn5-14" value="+ nom : string" style="text;strokeColor=none;fillColor=none;align=left;verticalAlign=top;spacingLeft=4;spacingRight=4;overflow=hidden;rotatable=0;points=[[0,0.5],[1,0.5]];portConstraint=eastwest;whiteSpace=wrap;html=1;" vertex="1" parent="BCEGYYYTrGKO1_osvVn5-13">
          <mxGeometry y="26" width="140" height="26" as="geometry" />
        </mxCell>
        <mxCell id="BCEGYYYTrGKO1_osvVn5-15" value="+ prenom: string" style="text;strokeColor=none;fillColor=none;align=left;verticalAlign=top;spacingLeft=4;spacingRight=4;overflow=hidden;rotatable=0;points=[[0,0.5],[1,0.5]];portConstraint=eastwest;whiteSpace=wrap;html=1;" vertex="1" parent="BCEGYYYTrGKO1_osvVn5-13">
          <mxGeometry y="52" width="140" height="26" as="geometry" />
        </mxCell>
        <mxCell id="BCEGYYYTrGKO1_osvVn5-17" value="Enfant" style="swimlane;fontStyle=0;childLayout=stackLayout;horizontal=1;startSize=26;fillColor=none;horizontalStack=0;resizeParent=1;resizeParentMax=0;resizeLast=0;collapsible=1;marginBottom=0;whiteSpace=wrap;html=1;" vertex="1" parent="WIyWlLk6GJQsqaUBKTNV-1">
          <mxGeometry x="20" y="230" width="140" height="52" as="geometry" />
        </mxCell>
        <mxCell id="BCEGYYYTrGKO1_osvVn5-21" value="Adulte" style="swimlane;fontStyle=0;childLayout=stackLayout;horizontal=1;startSize=26;fillColor=none;horizontalStack=0;resizeParent=1;resizeParentMax=0;resizeLast=0;collapsible=1;marginBottom=0;whiteSpace=wrap;html=1;" vertex="1" parent="WIyWlLk6GJQsqaUBKTNV-1">
          <mxGeometry x="280" y="230" width="140" height="52" as="geometry" />
        </mxCell>
        <mxCell id="BCEGYYYTrGKO1_osvVn5-22" value="Hotel" style="swimlane;fontStyle=1;align=center;verticalAlign=top;childLayout=stackLayout;horizontal=1;startSize=26;horizontalStack=0;resizeParent=1;resizeParentMax=0;resizeLast=0;collapsible=1;marginBottom=0;whiteSpace=wrap;html=1;" vertex="1" parent="WIyWlLk6GJQsqaUBKTNV-1">
          <mxGeometry x="245" y="380" width="210" height="114" as="geometry" />
        </mxCell>
        <mxCell id="BCEGYYYTrGKO1_osvVn5-23" value="+ adresse : string&lt;br&gt;+ nbre_de_pieces : int&lt;br&gt;+ categorie : string" style="text;strokeColor=none;fillColor=none;align=left;verticalAlign=top;spacingLeft=4;spacingRight=4;overflow=hidden;rotatable=0;points=[[0,0.5],[1,0.5]];portConstraint=eastwest;whiteSpace=wrap;html=1;" vertex="1" parent="BCEGYYYTrGKO1_osvVn5-22">
          <mxGeometry y="26" width="210" height="54" as="geometry" />
        </mxCell>
        <mxCell id="BCEGYYYTrGKO1_osvVn5-24" value="" style="line;strokeWidth=1;fillColor=none;align=left;verticalAlign=middle;spacingTop=-1;spacingLeft=3;spacingRight=3;rotatable=0;labelPosition=right;points=[];portConstraint=eastwest;strokeColor=inherit;" vertex="1" parent="BCEGYYYTrGKO1_osvVn5-22">
          <mxGeometry y="80" width="210" height="8" as="geometry" />
        </mxCell>
        <mxCell id="BCEGYYYTrGKO1_osvVn5-25" value="+ calculChiffreAffaire(Date, Date)" style="text;strokeColor=none;fillColor=none;align=left;verticalAlign=top;spacingLeft=4;spacingRight=4;overflow=hidden;rotatable=0;points=[[0,0.5],[1,0.5]];portConstraint=eastwest;whiteSpace=wrap;html=1;" vertex="1" parent="BCEGYYYTrGKO1_osvVn5-22">
          <mxGeometry y="88" width="210" height="26" as="geometry" />
        </mxCell>
        <mxCell id="BCEGYYYTrGKO1_osvVn5-28" value="Location" style="swimlane;fontStyle=1;align=center;verticalAlign=top;childLayout=stackLayout;horizontal=1;startSize=26;horizontalStack=0;resizeParent=1;resizeParentMax=0;resizeLast=0;collapsible=1;marginBottom=0;whiteSpace=wrap;html=1;" vertex="1" parent="WIyWlLk6GJQsqaUBKTNV-1">
          <mxGeometry x="620" y="60" width="160" height="60" as="geometry" />
        </mxCell>
        <mxCell id="BCEGYYYTrGKO1_osvVn5-29" value="+ date : Date" style="text;strokeColor=none;fillColor=none;align=left;verticalAlign=top;spacingLeft=4;spacingRight=4;overflow=hidden;rotatable=0;points=[[0,0.5],[1,0.5]];portConstraint=eastwest;whiteSpace=wrap;html=1;" vertex="1" parent="BCEGYYYTrGKO1_osvVn5-28">
          <mxGeometry y="26" width="160" height="26" as="geometry" />
        </mxCell>
        <mxCell id="BCEGYYYTrGKO1_osvVn5-30" value="" style="line;strokeWidth=1;fillColor=none;align=left;verticalAlign=middle;spacingTop=-1;spacingLeft=3;spacingRight=3;rotatable=0;labelPosition=right;points=[];portConstraint=eastwest;strokeColor=inherit;" vertex="1" parent="BCEGYYYTrGKO1_osvVn5-28">
          <mxGeometry y="52" width="160" height="8" as="geometry" />
        </mxCell>
        <mxCell id="BCEGYYYTrGKO1_osvVn5-32" value="SalleEau" style="swimlane;fontStyle=1;align=center;verticalAlign=top;childLayout=stackLayout;horizontal=1;startSize=26;horizontalStack=0;resizeParent=1;resizeParentMax=0;resizeLast=0;collapsible=1;marginBottom=0;whiteSpace=wrap;html=1;" vertex="1" parent="WIyWlLk6GJQsqaUBKTNV-1">
          <mxGeometry x="620" y="594" width="160" height="86" as="geometry" />
        </mxCell>
        <mxCell id="BCEGYYYTrGKO1_osvVn5-33" value="+ field: type" style="text;strokeColor=none;fillColor=none;align=left;verticalAlign=top;spacingLeft=4;spacingRight=4;overflow=hidden;rotatable=0;points=[[0,0.5],[1,0.5]];portConstraint=eastwest;whiteSpace=wrap;html=1;" vertex="1" parent="BCEGYYYTrGKO1_osvVn5-32">
          <mxGeometry y="26" width="160" height="26" as="geometry" />
        </mxCell>
        <mxCell id="BCEGYYYTrGKO1_osvVn5-34" value="" style="line;strokeWidth=1;fillColor=none;align=left;verticalAlign=middle;spacingTop=-1;spacingLeft=3;spacingRight=3;rotatable=0;labelPosition=right;points=[];portConstraint=eastwest;strokeColor=inherit;" vertex="1" parent="BCEGYYYTrGKO1_osvVn5-32">
          <mxGeometry y="52" width="160" height="8" as="geometry" />
        </mxCell>
        <mxCell id="BCEGYYYTrGKO1_osvVn5-35" value="+ method(type): type" style="text;strokeColor=none;fillColor=none;align=left;verticalAlign=top;spacingLeft=4;spacingRight=4;overflow=hidden;rotatable=0;points=[[0,0.5],[1,0.5]];portConstraint=eastwest;whiteSpace=wrap;html=1;" vertex="1" parent="BCEGYYYTrGKO1_osvVn5-32">
          <mxGeometry y="60" width="160" height="26" as="geometry" />
        </mxCell>
        <mxCell id="BCEGYYYTrGKO1_osvVn5-41" value="Douche" style="swimlane;fontStyle=0;childLayout=stackLayout;horizontal=1;startSize=26;fillColor=none;horizontalStack=0;resizeParent=1;resizeParentMax=0;resizeLast=0;collapsible=1;marginBottom=0;whiteSpace=wrap;html=1;" vertex="1" parent="WIyWlLk6GJQsqaUBKTNV-1">
          <mxGeometry x="800" y="750" width="140" height="52" as="geometry" />
        </mxCell>
        <mxCell id="BCEGYYYTrGKO1_osvVn5-45" value="Baignoire" style="swimlane;fontStyle=0;childLayout=stackLayout;horizontal=1;startSize=26;fillColor=none;horizontalStack=0;resizeParent=1;resizeParentMax=0;resizeLast=0;collapsible=1;marginBottom=0;whiteSpace=wrap;html=1;" vertex="1" parent="WIyWlLk6GJQsqaUBKTNV-1">
          <mxGeometry x="500" y="750" width="140" height="52" as="geometry" />
        </mxCell>
        <mxCell id="BCEGYYYTrGKO1_osvVn5-46" value="" style="endArrow=block;endSize=16;endFill=0;html=1;rounded=0;" edge="1" parent="WIyWlLk6GJQsqaUBKTNV-1" source="BCEGYYYTrGKO1_osvVn5-17" target="BCEGYYYTrGKO1_osvVn5-13">
          <mxGeometry width="160" relative="1" as="geometry">
            <mxPoint x="190" y="290" as="sourcePoint" />
            <mxPoint x="350" y="290" as="targetPoint" />
          </mxGeometry>
        </mxCell>
        <mxCell id="BCEGYYYTrGKO1_osvVn5-47" value="" style="endArrow=block;endSize=16;endFill=0;html=1;rounded=0;" edge="1" parent="WIyWlLk6GJQsqaUBKTNV-1" source="BCEGYYYTrGKO1_osvVn5-21" target="BCEGYYYTrGKO1_osvVn5-13">
          <mxGeometry width="160" relative="1" as="geometry">
            <mxPoint x="123" y="240" as="sourcePoint" />
            <mxPoint x="205" y="148" as="targetPoint" />
          </mxGeometry>
        </mxCell>
        <mxCell id="BCEGYYYTrGKO1_osvVn5-48" value="" style="endArrow=diamondThin;endFill=1;endSize=24;html=1;rounded=0;" edge="1" parent="WIyWlLk6GJQsqaUBKTNV-1" source="BCEGYYYTrGKO1_osvVn5-1" target="BCEGYYYTrGKO1_osvVn5-22">
          <mxGeometry width="160" relative="1" as="geometry">
            <mxPoint x="440" y="480" as="sourcePoint" />
            <mxPoint x="600" y="480" as="targetPoint" />
          </mxGeometry>
        </mxCell>
        <mxCell id="BCEGYYYTrGKO1_osvVn5-52" value="emploie" style="text;html=1;align=center;verticalAlign=middle;resizable=0;points=[];autosize=1;strokeColor=none;fillColor=none;" vertex="1" parent="WIyWlLk6GJQsqaUBKTNV-1">
          <mxGeometry x="385" y="310" width="70" height="30" as="geometry" />
        </mxCell>
        <mxCell id="BCEGYYYTrGKO1_osvVn5-53" value="" style="endArrow=none;html=1;rounded=0;entryX=0.25;entryY=1;entryDx=0;entryDy=0;exitX=0.25;exitY=0;exitDx=0;exitDy=0;" edge="1" parent="WIyWlLk6GJQsqaUBKTNV-1" source="BCEGYYYTrGKO1_osvVn5-22" target="BCEGYYYTrGKO1_osvVn5-21">
          <mxGeometry width="50" height="50" relative="1" as="geometry">
            <mxPoint x="310" y="440" as="sourcePoint" />
            <mxPoint x="360" y="390" as="targetPoint" />
          </mxGeometry>
        </mxCell>
        <mxCell id="BCEGYYYTrGKO1_osvVn5-54" value="" style="endArrow=none;html=1;rounded=0;entryX=0.75;entryY=1;entryDx=0;entryDy=0;exitX=0.75;exitY=0;exitDx=0;exitDy=0;" edge="1" parent="WIyWlLk6GJQsqaUBKTNV-1" source="BCEGYYYTrGKO1_osvVn5-22" target="BCEGYYYTrGKO1_osvVn5-21">
          <mxGeometry width="50" height="50" relative="1" as="geometry">
            <mxPoint x="308" y="390" as="sourcePoint" />
            <mxPoint x="325" y="292" as="targetPoint" />
          </mxGeometry>
        </mxCell>
        <mxCell id="BCEGYYYTrGKO1_osvVn5-55" value="dirige" style="text;html=1;align=center;verticalAlign=middle;resizable=0;points=[];autosize=1;strokeColor=none;fillColor=none;" vertex="1" parent="WIyWlLk6GJQsqaUBKTNV-1">
          <mxGeometry x="255" y="308" width="50" height="30" as="geometry" />
        </mxCell>
        <mxCell id="BCEGYYYTrGKO1_osvVn5-56" value="" style="endArrow=block;endSize=16;endFill=0;html=1;rounded=0;" edge="1" parent="WIyWlLk6GJQsqaUBKTNV-1" source="BCEGYYYTrGKO1_osvVn5-45" target="BCEGYYYTrGKO1_osvVn5-32">
          <mxGeometry width="160" relative="1" as="geometry">
            <mxPoint x="580" y="822" as="sourcePoint" />
            <mxPoint x="662" y="730" as="targetPoint" />
          </mxGeometry>
        </mxCell>
        <mxCell id="BCEGYYYTrGKO1_osvVn5-57" value="" style="endArrow=block;endSize=16;endFill=0;html=1;rounded=0;" edge="1" parent="WIyWlLk6GJQsqaUBKTNV-1" source="BCEGYYYTrGKO1_osvVn5-41" target="BCEGYYYTrGKO1_osvVn5-32">
          <mxGeometry width="160" relative="1" as="geometry">
            <mxPoint x="608" y="760" as="sourcePoint" />
            <mxPoint x="684" y="690" as="targetPoint" />
          </mxGeometry>
        </mxCell>
        <mxCell id="BCEGYYYTrGKO1_osvVn5-58" value="" style="endArrow=none;html=1;rounded=0;" edge="1" parent="WIyWlLk6GJQsqaUBKTNV-1" source="BCEGYYYTrGKO1_osvVn5-32" target="BCEGYYYTrGKO1_osvVn5-1">
          <mxGeometry width="50" height="50" relative="1" as="geometry">
            <mxPoint x="490" y="500" as="sourcePoint" />
            <mxPoint x="540" y="450" as="targetPoint" />
          </mxGeometry>
        </mxCell>
        <mxCell id="BCEGYYYTrGKO1_osvVn5-59" value="possede" style="text;html=1;align=center;verticalAlign=middle;resizable=0;points=[];autosize=1;strokeColor=none;fillColor=none;" vertex="1" parent="WIyWlLk6GJQsqaUBKTNV-1">
          <mxGeometry x="725" y="528" width="70" height="30" as="geometry" />
        </mxCell>
        <mxCell id="BCEGYYYTrGKO1_osvVn5-63" value="" style="rhombus;whiteSpace=wrap;html=1;" vertex="1" parent="WIyWlLk6GJQsqaUBKTNV-1">
          <mxGeometry x="672.5" y="232" width="55" height="48" as="geometry" />
        </mxCell>
        <mxCell id="BCEGYYYTrGKO1_osvVn5-64" value="" style="endArrow=none;html=1;rounded=0;entryX=0;entryY=0.5;entryDx=0;entryDy=0;" edge="1" parent="WIyWlLk6GJQsqaUBKTNV-1" source="BCEGYYYTrGKO1_osvVn5-21" target="BCEGYYYTrGKO1_osvVn5-63">
          <mxGeometry width="50" height="50" relative="1" as="geometry">
            <mxPoint x="490" y="400" as="sourcePoint" />
            <mxPoint x="540" y="350" as="targetPoint" />
          </mxGeometry>
        </mxCell>
        <mxCell id="BCEGYYYTrGKO1_osvVn5-65" value="" style="endArrow=none;html=1;rounded=0;entryX=0.5;entryY=0;entryDx=0;entryDy=0;" edge="1" parent="WIyWlLk6GJQsqaUBKTNV-1" source="BCEGYYYTrGKO1_osvVn5-28" target="BCEGYYYTrGKO1_osvVn5-63">
          <mxGeometry width="50" height="50" relative="1" as="geometry">
            <mxPoint x="430" y="266" as="sourcePoint" />
            <mxPoint x="683" y="266" as="targetPoint" />
          </mxGeometry>
        </mxCell>
        <mxCell id="BCEGYYYTrGKO1_osvVn5-68" value="" style="endArrow=none;html=1;rounded=0;exitX=0.5;exitY=1;exitDx=0;exitDy=0;" edge="1" parent="WIyWlLk6GJQsqaUBKTNV-1" source="BCEGYYYTrGKO1_osvVn5-63" target="BCEGYYYTrGKO1_osvVn5-1">
          <mxGeometry width="50" height="50" relative="1" as="geometry">
            <mxPoint x="759.41" y="226" as="sourcePoint" />
            <mxPoint x="759.41" y="338" as="targetPoint" />
          </mxGeometry>
        </mxCell>
      </root>
    </mxGraphModel>
  </diagram>
</mxfile>
